# xmcd CD database file
#
# Track frame offsets:
#	182
#	17757
#	36625
#	54377
#	67442
#	78392
#	95747
#	119305
#	134207
#	152015
#	171825
#	186910
#	205210
#	218332
#
# Disc length: 3189 seconds
#
# Revision: 1
# Processed by: cddbd v1.5.2PL0 Copyright (c) Steve Scherf et al.
# Submitted via: CDex 1.60beta1-cs1
#
DISCID=d30c730e
DTITLE=Brendan Croker - Not Just a Hillbilly... More Like a Best of Brendan Croker
DYEAR=2000
DGENRE=Country
TTITLE0=Joshua Gone Barbados
TTITLE1=Wrong Decision
TTITLE2=Running on Down the Road
TTITLE3=The Great Indoors
TTITLE4=Tomorrow is Another Day
TTITLE5=On My Knees
TTITLE6=What it Takes
TTITLE7=This Man
TTITLE8=Darlin'
TTITLE9=Anything I Can Say
TTITLE10=This Kind of Life
TTITLE11=Three Chord Love Songs
TTITLE12=Each Night You Die a Little
TTITLE13=Railroad Worksong
EXTD=YEAR: 2000
EXTT0=
EXTT1=
EXTT2=
EXTT3=
EXTT4=
EXTT5=
EXTT6=
EXTT7=
EXTT8=
EXTT9=
EXTT10=
EXTT11=
EXTT12=
EXTT13=
PLAYORDER=
